<svg width="27" height="34" viewBox="0 0 27 34" fill="none" xmlns="http://www.w3.org/2000/svg">
<path d="M13.499 33.2053C12.6725 33.2053 11.8798 32.8772 11.2949 32.2932L1.41406 22.4162V22.4153C1.1244 22.1256 0.894087 21.782 0.737305 21.4035C0.580497 21.025 0.5 20.619 0.5 20.2092C0.500015 19.7995 0.580511 19.3934 0.737305 19.0149C0.894105 18.6364 1.12439 18.2928 1.41406 18.0032C1.70373 17.7135 2.04734 17.4832 2.42578 17.3264C2.8043 17.1696 3.21041 17.0891 3.62012 17.0891C4.02988 17.0891 4.43588 17.1696 4.81445 17.3264C5.19302 17.4832 5.5374 17.7134 5.82715 18.0032L10.3799 22.5559V3.61937C10.3799 2.79207 10.708 1.99831 11.293 1.41331C11.878 0.828328 12.6717 0.500256 13.499 0.500229C14.3263 0.500229 15.1201 0.828361 15.7051 1.41331C16.2901 1.99831 16.6181 2.79207 16.6182 3.61937V22.5569L21.1738 18.0041L21.1729 18.0032C21.758 17.418 22.5523 17.0891 23.3799 17.0891C24.2074 17.0891 25.0008 17.418 25.5859 18.0032C26.1711 18.5883 26.5 19.3817 26.5 20.2092C26.5 21.0367 26.171 21.8301 25.5859 22.4153V22.4162L15.7041 32.2932H15.7031C15.1183 32.8772 14.3255 33.2053 13.499 33.2053Z" fill="white" stroke="black"/>
</svg>
