<svg width="27" height="34" viewBox="0 0 27 34" fill="none" xmlns="http://www.w3.org/2000/svg">
<path d="M13.501 0.5C14.3275 0.500027 15.1202 0.828086 15.7051 1.41211L25.5859 11.2891V11.29C25.8756 11.5797 26.1059 11.9233 26.2627 12.3018C26.4195 12.6803 26.5 13.0863 26.5 13.4961C26.5 13.9058 26.4195 14.3119 26.2627 14.6904C26.1059 15.0689 25.8756 15.4125 25.5859 15.7021C25.2963 15.9918 24.9527 16.2221 24.5742 16.3789C24.1957 16.5357 23.7896 16.6162 23.3799 16.6162C22.9701 16.6162 22.5641 16.5357 22.1855 16.3789C21.807 16.2221 21.4626 15.9919 21.1729 15.7021L16.6201 11.1494V30.0859C16.6201 30.9132 16.292 31.707 15.707 32.292C15.122 32.877 14.3283 33.2051 13.501 33.2051C12.6737 33.2051 11.8799 32.8769 11.2949 32.292C10.7099 31.707 10.3819 30.9132 10.3818 30.0859V11.1484L5.82617 15.7012L5.82715 15.7021C5.24198 16.2873 4.44767 16.6162 3.62012 16.6162C2.79263 16.6162 1.99919 16.2873 1.41406 15.7021C0.828941 15.117 0.500029 14.3236 0.5 13.4961C0.5 12.6686 0.828984 11.8752 1.41406 11.29V11.2891L11.2959 1.41211H11.2969C11.8817 0.828126 12.6745 0.5 13.501 0.5Z" fill="white" stroke="black"/>
</svg>
